<?xml version="1.0" ?>

<svg width="800px" height="800px" viewBox="0 0 32 32" id="Camada_1" version="1.1" xml:space="preserve" xmlns="http://www.w3.org/2000/svg" xmlns:xlink="http://www.w3.org/1999/xlink">

<style type="text/css">
	.st0{fill:#FFFFFF;}
</style>

<path d="M6,2h20c2.2,0,4,1.8,4,4v20c0,2.2-1.8,4-4,4H6c-2.2,0-4-1.8-4-4V6C2,3.8,3.8,2,6,2z"/>

<g>

<path class="st0" d="M27.5,16c0-1.6-1.9-2.9-4.7-3.8c0.7-2.9,0.4-5.2-0.9-5.9C21.5,6.1,21.2,6,20.8,6c-1.3,0-2.9,0.9-4.5,2.5   C14.6,6.9,13,6,11.7,6c-0.4,0-0.8,0.1-1.1,0.3C9.3,7,9,9.3,9.7,12.2C6.9,13.1,5,14.4,5,16s1.9,2.9,4.7,3.8c-0.7,2.9-0.5,5.2,0.9,6   c0.3,0.2,0.7,0.3,1.1,0.3c1.3,0,2.9-0.9,4.5-2.5c1.6,1.6,3.3,2.5,4.5,2.5c0.4,0,0.8-0.1,1.1-0.3c1.3-0.8,1.6-3.1,0.9-6   C25.6,18.9,27.5,17.5,27.5,16z M20.8,7.1c0.2,0,0.4,0,0.5,0.1c0.6,0.4,0.9,1.7,0.7,3.4c-0.1,0.4-0.1,0.9-0.2,1.3   c-0.9-0.2-1.9-0.4-2.9-0.5c-0.6-0.8-1.2-1.6-1.8-2.2C18.5,7.8,19.9,7.1,20.8,7.1z M19.3,17.8c-0.3,0.6-0.7,1.1-1,1.7   c-0.7,0-1.3,0.1-2,0.1s-1.4,0-2-0.1c-0.4-0.5-0.7-1.1-1-1.7c-0.3-0.6-0.6-1.2-0.9-1.8c0.3-0.6,0.6-1.2,0.9-1.8   c0.3-0.6,0.7-1.2,1.1-1.7c0.6,0,1.3-0.1,2-0.1s1.3,0,2,0.1c0.4,0.5,0.7,1.1,1.1,1.7c0.3,0.6,0.6,1.2,0.9,1.8   C20,16.6,19.6,17.2,19.3,17.8z M20.8,17.3c0.2,0.6,0.4,1.1,0.6,1.7c-0.6,0.1-1.2,0.2-1.8,0.3c0.2-0.3,0.4-0.6,0.6-1   C20.4,18,20.6,17.6,20.8,17.3L20.8,17.3z M16.2,22c-0.4-0.4-0.8-0.9-1.2-1.4c0.4,0,0.8,0,1.2,0c0.4,0,0.8,0,1.2,0   C17,21.1,16.6,21.6,16.2,22z M12.8,19.3c-0.6-0.1-1.2-0.2-1.8-0.3c0.2-0.6,0.4-1.1,0.6-1.7c0.2,0.3,0.4,0.7,0.6,1   C12.4,18.7,12.6,19,12.8,19.3L12.8,19.3z M11.7,14.7c-0.2-0.6-0.4-1.2-0.6-1.7c0.6-0.1,1.2-0.2,1.8-0.3c-0.2,0.3-0.4,0.7-0.6,1   C12,14,11.8,14.4,11.7,14.7z M16.2,10c0.4,0.4,0.8,0.9,1.2,1.4c-0.4,0-0.8,0-1.2,0c-0.4,0-0.8,0-1.2,0C15.4,10.9,15.8,10.4,16.2,10   z M20.2,13.7c-0.2-0.4-0.4-0.7-0.6-1c0.6,0.1,1.2,0.2,1.8,0.3c-0.2,0.6-0.4,1.2-0.6,1.7C20.6,14.4,20.4,14,20.2,13.7z M10.5,10.6   c-0.2-1.7,0-3,0.7-3.4c0.1-0.1,0.3-0.1,0.5-0.1c0.9,0,2.3,0.7,3.8,2.2c-0.6,0.7-1.2,1.4-1.8,2.2c-1,0.1-2,0.3-2.9,0.5   C10.6,11.5,10.5,11,10.5,10.6z M8.7,18.2c-1.6-0.7-2.6-1.5-2.6-2.3c0-0.7,1-1.6,2.6-2.3c0.4-0.2,0.8-0.3,1.3-0.4   c0.3,0.9,0.6,1.8,1,2.7c-0.4,0.9-0.8,1.8-1,2.7C9.5,18.6,9.1,18.4,8.7,18.2L8.7,18.2z M11.2,24.8c-0.6-0.4-0.9-1.7-0.7-3.4   c0.1-0.4,0.1-0.9,0.3-1.4c0.9,0.2,1.8,0.4,2.8,0.5c0.6,0.8,1.2,1.6,1.9,2.3c-1.5,1.4-2.9,2.2-3.8,2.2   C11.5,24.9,11.3,24.9,11.2,24.8L11.2,24.8z M22,21.4c0.2,1.7,0,3-0.7,3.4c-0.1,0.1-0.3,0.1-0.5,0.1c-0.9,0-2.3-0.7-3.8-2.2   c0.6-0.7,1.3-1.4,1.9-2.3c1-0.1,2-0.2,2.8-0.5C21.8,20.5,21.9,21,22,21.4L22,21.4z M23.8,18.2c-0.4,0.2-0.8,0.3-1.3,0.5   c-0.3-0.9-0.6-1.8-1-2.7c0.4-0.9,0.8-1.9,1-2.7c0.5,0.1,0.9,0.3,1.3,0.4c1.6,0.7,2.6,1.5,2.6,2.3C26.4,16.7,25.4,17.6,23.8,18.2   L23.8,18.2z"/>

<path class="st0" d="M16.3,18.1c1.2,0,2.1-0.9,2.1-2.1s-0.9-2.1-2.1-2.1s-2.1,0.9-2.1,2.1S15.1,18.1,16.3,18.1z"/>

</g>

</svg>